<svg width="18" height="18" viewBox="0 0 18 18" fill="none" xmlns="http://www.w3.org/2000/svg">
<path d="M16.0125 8.325H9.13496V10.3725H14.0175C13.77 13.23 11.3925 14.4525 9.14246 14.4525C6.26996 14.4525 3.74996 12.1875 3.74996 9C3.74996 5.925 6.14996 3.5475 9.14996 3.5475C11.4675 3.5475 12.825 5.025 12.825 5.025L14.25 3.54C14.25 3.54 12.42 1.5 9.07496 1.5C4.81496 1.5 1.52246 5.1 1.52246 9C1.52246 12.7875 4.61996 16.5 9.18746 16.5C13.2 16.5 16.125 13.7475 16.125 9.6825C16.125 8.82 16.0125 8.325 16.0125 8.325Z" fill="white"/>
</svg>
